<svg height="480pt" viewBox="0 -8 480.02094 480" width="480pt" xmlns="http://www.w3.org/2000/svg"><path d="m168 8.011719h144c17.671875 0 32 14.324219 32 32v144c0 17.671875-14.328125 32-32 32h-144c-17.671875 0-32-14.328125-32-32v-144c0-17.675781 14.328125-32 32-32zm0 0" fill="#c4f236"/><path d="m472 408.011719-232-16-232 16v32l200-13.839844c1.976562 16.039063 15.601562 28.085937 31.761719 28.085937 16.160156 0 29.78125-12.046874 31.757812-28.085937l200.480469 13.839844zm0 0" fill="#cc5144"/><path d="m448 360.011719-122.640625-29.203125c-29.085937-6.921875-59.722656-2.183594-85.359375 13.203125v48l208 16zm0 0" fill="#fcbc04"/><path d="m32 360.011719 122.640625-29.203125c29.085937-6.921875 59.722656-2.183594 85.359375 13.203125v48l-208 16zm0 0" fill="#fcbc04"/><path d="m325.359375 330.808594c-29.085937-6.921875-59.722656-2.183594-85.359375 13.203125v24c25.636719-15.386719 56.273438-20.125 85.359375-13.203125l122.640625 29.203125v-24zm0 0" fill="#f9e109"/><path d="m154.640625 330.808594-122.640625 29.203125v24l122.640625-29.203125c29.085937-6.921875 59.722656-2.183594 85.359375 13.203125v-24c-25.636719-15.386719-56.273438-20.125-85.359375-13.203125zm0 0" fill="#f9e109"/><path d="m472 408.011719-232-16-232 16v16l202-13.921875c3.621094-.265625 7.191406.988281 9.847656 3.464844 2.65625 2.472656 4.164063 5.945312 4.152344 9.574218-.316406 8.125 5.308594 15.277344 13.28125 16.882813 4.691406.808593 9.496094-.511719 13.117188-3.605469 3.617187-3.09375 5.671874-7.636719 5.601562-12.394531-.011719-3.859375 1.589844-7.546875 4.414062-10.175781 2.824219-2.625 6.617188-3.957032 10.464844-3.664063l201.121094 13.839844zm0 0" fill="#f8664f"/><path d="m168 48.011719v-40c-17.671875 0-32 14.324219-32 32v144c0 17.671875 14.328125 32 32 32h144c17.671875 0 32-14.328125 32-32v-8h-48c-70.691406 0-128-57.308594-128-128zm0 0" fill="#a1d51c"/><path d="m192 168.011719v-112l112 56zm0 0" fill="#f8664f"/><path d="m192 122.410156v45.601563l30.558594-15.28125c-11.824219-8.308594-22.15625-18.558594-30.558594-30.320313zm0 0" fill="#cc5144"/><g fill="#39519d"><path d="m472.558594 432.011719-200.558594-13.761719c-2.121094-.152344-4.21875.546875-5.828125 1.941406-1.605469 1.394532-2.589844 3.375-2.730469 5.5-1.6875 11.828125-11.816406 20.613282-23.761718 20.613282-11.945313 0-22.074219-8.785157-23.757813-20.613282-.292969-4.167968-3.746094-7.410156-7.921875-7.441406l-192 13.199219v-16l224-15.4375 231.441406 16c2.121094.152343 4.21875-.546875 5.824219-1.941407 1.605469-1.398437 2.589844-3.375 2.734375-5.5.152344-2.121093-.542969-4.21875-1.941406-5.824218-1.394532-1.609375-3.375-2.59375-5.5-2.734375l-224.558594-15.441407v-35.917968c23.050781-12.613282 49.96875-16.207032 75.519531-10.082032l116.480469 27.761719v8c0 4.417969 3.582031 8 8 8s8-3.582031 8-8v-14.320312c.101562-3.789063-2.46875-7.128907-6.160156-8l-122.640625-28.960938c-29.53125-7.09375-60.652344-2.839843-87.199219 11.917969-26.546875-14.757812-57.667969-19.011719-87.199219-11.917969l-122.640625 28.960938c-3.691406.871093-6.261718 4.210937-6.160156 8v38.878906l-16.558594 1.121094c-4.199218.292969-7.4531248 3.789062-7.441406 8v32c.0078125 2.214843.933594 4.332031 2.558594 5.839843 1.617187 1.519532 3.789062 2.300782 6 2.160157l193.042968-13.359375c4.976563 17.066406 20.621094 28.796875 38.398438 28.796875s33.421875-11.730469 38.398438-28.796875l193.042968 13.359375c2.121094.152343 4.21875-.546875 5.824219-1.941407 1.605469-1.398437 2.589844-3.375 2.734375-5.5.152344-2.121093-.542969-4.21875-1.941406-5.824218-1.394532-1.609375-3.375-2.59375-5.5-2.734375zm-432.558594-65.679688 116.480469-27.761719c25.550781-6.125 52.46875-2.53125 75.519531 10.082032v35.917968l-192 13.199219zm0 0"/><path d="m168 224.011719h144c22.089844 0 40-17.910157 40-40v-88c0-4.417969-3.582031-8-8-8s-8 3.582031-8 8v88c0 13.253906-10.746094 24-24 24h-144c-13.253906 0-24-10.746094-24-24v-144c0-13.257813 10.746094-24 24-24h144c13.253906 0 24 10.742187 24 24v24c0 4.417969 3.582031 8 8 8s8-3.582031 8-8v-24c0-22.09375-17.910156-40.0000002-40-40.0000002h-144c-22.089844 0-40 17.9062502-40 40.0000002v144c0 22.089843 17.910156 40 40 40zm0 0"/><path d="m192 128.011719c-4.417969 0-8 3.582031-8 8v32c-.003906 2.761719 1.417969 5.332031 3.761719 6.796875 1.269531.789062 2.742187 1.207031 4.238281 1.203125 1.253906-.007813 2.484375-.308594 3.601562-.882813l112-56c2.671876-1.367187 4.351563-4.117187 4.351563-7.117187 0-3.003907-1.679687-5.753907-4.351563-7.121094l-112-56c-2.476562-1.246094-5.421874-1.125-7.785156.324219-2.363281 1.453125-3.808594 4.023437-3.816406 6.796875v48c0 4.417969 3.582031 8 8 8s8-3.582031 8-8v-35.042969l86.078125 43.042969-86.078125 43.039062v-19.039062c0-4.417969-3.582031-8-8-8zm0 0"/><path d="m232 256.011719v56c0 4.417969 3.582031 8 8 8s8-3.582031 8-8v-56c0-4.417969-3.582031-8-8-8s-8 3.582031-8 8zm0 0"/><path d="m288 246.410156-8 40c-.46875 2.125-.050781 4.351563 1.15625 6.164063s3.101562 3.050781 5.242188 3.4375h1.601562c3.863281.078125 7.226562-2.617188 8-6.402344l8-40c.882812-4.417969-1.980469-8.714844-6.398438-9.597656-4.417968-.886719-8.71875 1.980469-9.601562 6.398437zm0 0"/><path d="m174.398438 240.011719c-2.140626.382812-4.035157 1.625-5.242188 3.4375-1.207031 1.808593-1.625 4.035156-1.15625 6.160156l8 40c.773438 3.785156 4.136719 6.480469 8 6.402344h1.601562c2.140626-.386719 4.035157-1.625 5.242188-3.4375s1.625-4.039063 1.15625-6.164063l-8-40c-.382812-2.144531-1.625-4.035156-3.4375-5.246094-1.8125-1.207031-4.035156-1.625-6.164062-1.152343zm0 0"/><path d="m323.601562 302.652344c1.285157.902344 2.824219 1.375 4.398438 1.359375 2.675781-.015625 5.167969-1.367188 6.640625-3.601563l48-72c1.902344-2.363281 2.304687-5.601562 1.039063-8.359375-1.269532-2.757812-3.988282-4.5625-7.023438-4.65625s-5.859375 1.539063-7.296875 4.214844l-48 72c-2.410156 3.671875-1.410156 8.601563 2.242187 11.042969zm0 0"/><path d="m137.359375 300.410156c1.472656 2.234375 3.964844 3.585938 6.640625 3.601563 1.574219.015625 3.113281-.457031 4.398438-1.359375 3.652343-2.441406 4.652343-7.371094 2.242187-11.042969l-48-72c-1.4375-2.675781-4.261719-4.308594-7.296875-4.214844-3.03125.09375-5.753906 1.898438-7.023438 4.65625-1.265624 2.757813-.863281 5.996094 1.039063 8.359375zm0 0"/><path d="m369.601562 308.808594c1.507813 2.015625 3.878907 3.203125 6.398438 3.203125 1.730469 0 3.414062-.5625 4.800781-1.601563l32-24c3.535157-2.652344 4.25-7.664062 1.597657-11.199218-2.648438-3.535157-7.664063-4.25-11.199219-1.601563l-32 24c-3.535157 2.652344-4.25 7.667969-1.597657 11.199219zm0 0"/><path d="m99.199219 310.410156c1.386719 1.039063 3.070312 1.601563 4.800781 1.601563 2.519531 0 4.890625-1.1875 6.398438-3.203125 2.652343-3.53125 1.9375-8.546875-1.597657-11.199219l-32-24c-3.535156-2.648437-8.550781-1.933594-11.199219 1.601563-2.652343 3.535156-1.9375 8.546874 1.597657 11.199218zm0 0"/></g></svg>